<?xml version="1.0" encoding="UTF-8" standalone="no"?>
<!-- Created with Inkscape (http://www.inkscape.org/) -->

<svg
   xmlns:dc="http://purl.org/dc/elements/1.1/"
   xmlns:cc="http://creativecommons.org/ns#"
   xmlns:rdf="http://www.w3.org/1999/02/22-rdf-syntax-ns#"
   xmlns:svg="http://www.w3.org/2000/svg"
   xmlns="http://www.w3.org/2000/svg"
   xmlns:sodipodi="http://sodipodi.sourceforge.net/DTD/sodipodi-0.dtd"
   xmlns:inkscape="http://www.inkscape.org/namespaces/inkscape"
   version="1.1"
   id="svg2"
   xml:space="preserve"
   width="1701.6"
   height="159.94667"
   viewBox="0 0 1701.6 159.94667"
   sodipodi:docname="009_p88_Logotransoparente.svg"
   inkscape:version="0.92.5 (2060ec1f9f, 2020-04-08)"><metadata
     id="metadata8"><rdf:RDF><cc:Work
         rdf:about=""><dc:format>image/svg+xml</dc:format><dc:type
           rdf:resource="http://purl.org/dc/dcmitype/StillImage" /><dc:title></dc:title></cc:Work></rdf:RDF></metadata><defs
     id="defs6" /><sodipodi:namedview
     pagecolor="#ffffff"
     bordercolor="#666666"
     borderopacity="1"
     objecttolerance="10"
     gridtolerance="10"
     guidetolerance="10"
     inkscape:pageopacity="0"
     inkscape:pageshadow="2"
     inkscape:window-width="1426"
     inkscape:window-height="634"
     id="namedview4"
     showgrid="false"
     inkscape:zoom="0.21861777"
     inkscape:cx="311.04516"
     inkscape:cy="262.94107"
     inkscape:window-x="0"
     inkscape:window-y="27"
     inkscape:window-maximized="0"
     inkscape:current-layer="g10" /><g
     id="g10"
     inkscape:groupmode="layer"
     inkscape:label="ink_ext_XXXXXX"
     transform="matrix(1.3333333,0,0,-1.3333333,0,159.94667)"><g
       id="g12"
       transform="scale(0.1)"><path
         d="M 404.102,1023.87 H 142.148 V 589.414 h 263.575 c 151.738,0 244.394,70.254 244.394,222.02 0,143.773 -105.449,212.436 -246.015,212.436 z M 701.211,559.043 C 640.527,498.34 533.496,460.02 408.906,460.02 H 142.148 V 20.75 H 0 v 1132.52 h 407.305 c 132.578,0 241.191,-41.55 301.894,-107.03 54.336,-59.111 87.871,-135.779 87.871,-234.806 0,-110.215 -35.175,-191.676 -95.859,-252.391"
         style="fill:#231f20;fill-opacity:1;fill-rule:nonzero;stroke:none"
         id="path14"
         inkscape:connector-curvature="0" /><path
         d="m 1512.66,410.488 -223.64,-12.773 c -86.23,-4.785 -178.88,-46.297 -178.88,-148.555 0,-71.871 46.32,-134.172 161.32,-134.172 62.31,0 126.2,20.762 169.34,65.512 47.89,49.488 71.86,114.988 71.86,182.09 z M 1640.43,9.58984 c -71.86,0 -119.79,54.30076 -119.79,122.96116 h -3.22 C 1469.53,51.0898 1364.1,0 1250.7,0 1057.4,0 971.152,122.969 971.152,238 c 0,119.773 83.068,252.359 289.138,263.531 l 252.37,14.407 v 59.07 c 0,39.941 -4.79,83.078 -41.53,116.613 -27.18,25.567 -70.27,46.34 -135.78,46.34 -73.47,0 -119.8,-22.375 -146.95,-49.535 -25.55,-25.567 -39.94,-52.723 -43.15,-94.227 h -134.18 c 1.63,68.66 31.98,122.989 75.12,166.121 55.88,55.891 150.14,89.438 249.16,89.438 156.56,0 249.18,-71.867 287.52,-159.719 16,-36.738 23.97,-73.476 23.97,-119.805 V 178.891 c 0,-43.141 20.76,-54.301 47.91,-54.301 14.39,0 35.15,4.769 35.15,4.769 V 28.7305 C 1701.13,14.3594 1673.98,9.58984 1640.43,9.58984"
         style="fill:#231f20;fill-opacity:1;fill-rule:nonzero;stroke:none"
         id="path16"
         inkscape:connector-curvature="0" /><path
         d="m 2597.23,555.859 c 0,44.715 -14.36,86.25 -43.15,118.192 -27.15,30.363 -68.65,52.726 -127.77,52.726 -81.45,0 -153.36,-62.304 -185.27,-137.363 -25.57,-60.734 -35.16,-143.769 -35.16,-209.269 V 20.75 H 2068.5 v 808.254 h 119.82 l 11.15,-121.399 c 51.16,97.434 154.96,142.153 255.61,142.153 108.59,0 185.27,-54.297 230,-118.195 38.34,-55.911 51.13,-118.196 51.13,-175.704 h -138.98"
         style="fill:#231f20;fill-opacity:1;fill-rule:nonzero;stroke:none"
         id="path18"
         inkscape:connector-curvature="0" /><path
         d="M 3493.32,410.488 3269.69,397.715 C 3183.44,392.93 3090.8,351.418 3090.8,249.16 c 0,-71.871 46.33,-134.172 161.33,-134.172 62.3,0 126.19,20.762 169.33,65.512 47.9,49.488 71.86,114.988 71.86,182.09 z M 3621.09,9.58984 c -71.85,0 -119.8,54.30076 -119.8,122.96116 h -3.2 C 3450.2,51.0898 3344.77,0 3231.35,0 3038.07,0 2951.8,122.969 2951.8,238 c 0,119.773 83.08,252.359 289.16,263.531 l 252.36,14.407 v 59.07 c 0,39.941 -4.78,83.078 -41.52,116.613 -27.19,25.567 -70.3,46.34 -135.78,46.34 -73.48,0 -119.83,-22.375 -146.98,-49.535 -25.52,-25.567 -39.92,-52.723 -43.12,-94.227 h -134.18 c 1.62,68.66 31.95,122.989 75.1,166.121 55.87,55.891 150.15,89.438 249.18,89.438 156.54,0 249.16,-71.867 287.52,-159.719 15.99,-36.738 23.94,-73.476 23.94,-119.805 V 178.891 c 0,-43.141 20.78,-54.301 47.93,-54.301 14.38,0 35.16,4.769 35.16,4.769 V 28.7305 C 3681.8,14.3594 3654.63,9.58984 3621.09,9.58984"
         style="fill:#231f20;fill-opacity:1;fill-rule:nonzero;stroke:none"
         id="path20"
         inkscape:connector-curvature="0" /><path
         d="m 3975.68,20.75 v 115 H 4260 v 924.86 h -260.33 v 113.41 h 397.71 V 135.75 h 282.74 v -115 h -704.44"
         style="fill:#231f20;fill-opacity:1;fill-rule:nonzero;stroke:none"
         id="path22"
         inkscape:connector-curvature="0" /><path
         d="m 5454.8,667.676 c -39.96,41.512 -91.05,65.469 -154.94,65.469 -154.92,0 -228.41,-143.731 -231.62,-239.59 h 455.26 c -1.62,68.672 -27.15,130.988 -68.7,174.121 z M 5063.48,381.758 c 0,-70.285 23.94,-148.567 81.46,-202.867 38.32,-36.75 91.04,-60.7 154.92,-60.7 71.88,0 108.62,15.989 148.54,47.899 28.77,22.39 55.92,59.125 67.09,97.445 h 130.97 C 5608.14,95.8086 5469.2,0 5299.86,0 5196.04,0 5108.2,43.1289 5044.3,105.398 c -86.27,84.661 -119.81,201.274 -119.81,316.262 0,126.199 41.53,244.403 119.81,324.266 62.26,62.304 148.53,103.832 257.18,103.832 102.21,0 191.66,-38.324 249.18,-97.434 76.66,-78.273 116.61,-196.465 116.61,-322.656 v -47.91 h -603.79"
         style="fill:#231f20;fill-opacity:1;fill-rule:nonzero;stroke:none"
         id="path24"
         inkscape:connector-curvature="0" /><path
         d="m 5956.33,20.75 v 115 h 284.33 v 924.86 h -260.35 v 113.41 h 397.72 V 135.75 h 282.75 v -115 h -704.45"
         style="fill:#231f20;fill-opacity:1;fill-rule:nonzero;stroke:none"
         id="path26"
         inkscape:connector-curvature="0" /><path
         d="m 7425.88,674.051 c -35.14,31.945 -86.25,57.512 -150.14,57.512 -63.88,0 -115.04,-25.567 -150.15,-57.512 -68.7,-62.293 -91.04,-159.727 -91.04,-247.578 0,-87.848 22.34,-188.473 91.04,-250.793 35.11,-31.918 86.27,-57.489 150.15,-57.489 63.89,0 115,25.571 150.14,57.489 68.69,62.32 91.07,161.332 91.07,249.183 0,87.879 -22.38,186.895 -91.07,249.188 z M 7529.69,97.4219 C 7470.63,39.9297 7379.57,0 7277.32,0 7175.12,0 7080.84,39.9297 7021.76,97.4219 6933.91,183.66 6895.57,297.082 6895.57,424.863 c 0,127.813 38.34,241.2 126.19,327.461 59.08,57.5 153.36,97.434 255.56,97.434 102.25,0 193.31,-39.934 252.37,-97.434 87.89,-86.261 126.21,-198.066 126.21,-325.851 0,-127.782 -38.32,-242.813 -126.21,-329.0511"
         style="fill:#231f20;fill-opacity:1;fill-rule:nonzero;stroke:none"
         id="path28"
         inkscape:connector-curvature="0" /><path
         d="m 8956.41,1033.45 c -110.22,0 -204.48,-70.266 -204.48,-183.692 0,-102.207 76.64,-191.672 204.48,-191.672 127.77,0 204.45,89.465 204.45,191.672 0,113.426 -94.26,183.692 -204.45,183.692 z m 0,-493.559 c -140.57,0 -226.84,-89.461 -226.84,-207.645 0,-130.988 97.42,-212.465 226.84,-212.465 129.35,0 226.79,81.477 226.79,212.465 0,118.184 -86.23,207.645 -226.79,207.645 z m 290.68,-418.5 C 9181.62,43.1289 9072.99,0 8956.41,0 c -116.62,0 -225.26,43.1289 -290.73,121.391 -44.7,52.711 -73.49,119.789 -73.49,204.449 0,121.387 71.87,226.836 174.12,273.125 -91.04,47.961 -151.74,143.769 -151.74,250.793 0,91.043 36.74,162.942 91.06,214.052 62.26,57.49 153.33,89.46 250.78,89.46 97.44,0 188.47,-31.97 250.76,-89.46 54.33,-51.11 91.07,-123.009 91.07,-214.052 0,-107.024 -60.74,-202.832 -151.78,-250.793 102.25,-46.289 174.11,-151.738 174.11,-273.125 0,-84.66 -28.73,-151.738 -73.48,-204.449"
         style="fill:#231f20;fill-opacity:1;fill-rule:nonzero;stroke:none"
         id="path30"
         inkscape:connector-curvature="0" /><path
         d="m 9946.74,1033.45 c -110.24,0 -204.47,-70.266 -204.47,-183.692 0,-102.207 76.64,-191.672 204.47,-191.672 127.76,0 204.46,89.465 204.46,191.672 0,113.426 -94.3,183.692 -204.46,183.692 z m 0,-493.559 c -140.57,0 -226.84,-89.461 -226.84,-207.645 0,-130.988 97.42,-212.465 226.84,-212.465 129.36,0 226.76,81.477 226.76,212.465 0,118.184 -86.2,207.645 -226.76,207.645 z m 290.66,-418.5 C 10172,43.1289 10063.3,0 9946.74,0 9830.12,0 9721.48,43.1289 9656,121.391 c -44.69,52.711 -73.48,119.789 -73.48,204.449 0,121.387 71.87,226.836 174.12,273.125 -91.03,47.961 -151.74,143.769 -151.74,250.793 0,91.043 36.74,162.942 91.06,214.052 62.26,57.49 153.34,89.46 250.78,89.46 97.46,0 188.46,-31.97 250.76,-89.46 54.3,-51.11 91.1,-123.009 91.1,-214.052 0,-107.024 -60.8,-202.832 -151.8,-250.793 102.2,-46.289 174.1,-151.738 174.1,-273.125 0,-84.66 -28.7,-151.738 -73.5,-204.449"
         style="fill:#231f20;fill-opacity:1;fill-rule:nonzero;stroke:none"
         id="path32"
         inkscape:connector-curvature="0" /><path
         d="m 12243.2,685.32 469.8,464.75 m -1130.6,-461.703 660.8,-3.57 m -3.7,-660.8478 3.6,660.8478"
         style="fill:none;stroke:#231f20;stroke-width:139.26400757;stroke-linecap:butt;stroke-linejoin:miter;stroke-miterlimit:10;stroke-dasharray:none;stroke-opacity:1"
         id="path34"
         inkscape:connector-curvature="0" /></g></g></svg>